<svg id="Layer_1" data-name="Layer 1" xmlns="http://www.w3.org/2000/svg" viewBox="0 0 100 32"><defs><style>.cls-1{fill:#fff;opacity:0;}.cls-2{fill:#072045;}</style></defs><rect class="cls-1" y="0.51" width="100.12" height="31.49"/><g id="g3101"><path id="path3103" class="cls-2" d="M26.09,4.49H23.85L18.4,17.6h3.07l1.08-2.55h4.84l1.08,2.55h3.07Zm-2.67,8.06L25,8.46h0l1.57,4.09Z"/></g><g id="g3107"><g id="g3113"><path id="path3115" class="cls-2" d="M66,8.58a4,4,0,0,0-3.62-.66,3.88,3.88,0,0,0-1.4.82l-.08-.82H58.26v9.63h3V11a3,3,0,0,1,.82-.57,1.86,1.86,0,0,1,1.65-.08,2.07,2.07,0,0,1,.74,1.81v5.43h3V11.87A4.83,4.83,0,0,0,66,8.58"/></g><g id="g3117"><path id="path3119" class="cls-2" d="M34.67,8H32V17.6h3V10.94a5.19,5.19,0,0,1,.74-.58,1.67,1.67,0,0,1,1.73.08A2.2,2.2,0,0,1,37.88,12V17.6h2.88V11.84a5.19,5.19,0,0,0-.08-1.07,4.18,4.18,0,0,1,.82-.41,1.89,1.89,0,0,1,1.65,0A2,2,0,0,1,43.72,12V17.6H46.6V11.93a4.23,4.23,0,0,0-1.07-3.21,4.57,4.57,0,0,0-2.71-.91,6.13,6.13,0,0,0-3.21,1A3.66,3.66,0,0,0,36.07,8a3.73,3.73,0,0,0-1.4.82Z"/></g><g id="g3121"><path id="path3123" class="cls-2" d="M56.82,8h-3v6.66l-.74.49a2.17,2.17,0,0,1-1.65.09c-.66-.25-.74-1.32-.74-1.81V8h-3v5.67a4.44,4.44,0,0,0,.91,3,3.62,3.62,0,0,0,3,1.07,2.79,2.79,0,0,0,1.4-.42,3.35,3.35,0,0,0,.9-.57l.17.82h2.71Z"/></g><g id="g3125"><path id="path3127" class="cls-2" d="M74.08,4.44V7.9a4.44,4.44,0,0,0-1.48-.17,4.83,4.83,0,0,0-3.38,1.32,5.06,5.06,0,0,0-1.4,3.54c0,3.12,1.73,4.44,2.56,4.77a3.62,3.62,0,0,0,1.81.33,3,3,0,0,0,2-.83l.08.58h2.63V4.36H74.08Zm0,10.28a1.2,1.2,0,0,1-.74.5c-1,.41-2.31-.08-2.55-1.81A3.24,3.24,0,0,1,71,11.6,2.15,2.15,0,0,1,73,10.2a5,5,0,0,1,1.07.16Z"/></g><g id="g3129"><path id="path3131" class="cls-2" d="M81.72,5.8a1.73,1.73,0,0,1-3.45,0,1.73,1.73,0,0,1,3.45,0"/></g></g><path id="path3133" class="cls-2" d="M78.49,8h2.88v9.62H78.49Z"/><path id="path3135" class="cls-2" d="M18.51,20.1H81.45v2.47H18.51Z"/><g id="g3137"><path id="path3139" class="cls-2" d="M31.68,28.26,32.93,25h.81L35,28.26h-.93l-.2-.55H32.78l-.2.55ZM33,27h.69l-.35-1Z"/></g><g id="g3141"><path id="path3143" class="cls-2" d="M41.22,28.26V25h2.32v.76H42.09v.52h1.16V27H42.09v.52h1.54v.75Z"/></g><g id="g3145"><path id="path3147" class="cls-2" d="M44.8,28.26V25.77h-.9V25h2.67v.76h-.9v2.49Z"/></g><g id="g3149"><path id="path3151" class="cls-2" d="M48,28.26V25h.9L49.67,27,50.42,25h.9v3.25h-.84V26.67l-.64,1.59h-.35l-.67-1.62v1.59H48Z"/></g><g id="g3153"><path id="path3155" class="cls-2" d="M51.74,28.26,53,25h.81l1.28,3.25h-.93l-.2-.55H52.84l-.2.55ZM53,27h.69l-.34-1Z"/></g><g id="g3157"><path id="path3159" class="cls-2" d="M55.46,28.26V25h.87l1,1.71V25h.84v3.25h-.78l-1.16-1.83v1.83Z"/></g><g id="g3161"><path id="path3163" class="cls-2" d="M58.65,28.26,59.89,25h.82L62,28.26h-.93l-.2-.55h-1.1l-.2.55ZM60,27h.7l-.35-1Z"/></g><g id="g3165"><path id="path3167" class="cls-2" d="M65.51,28.26V25h2.33v.76H66.38v.52h1.16V27H66.38v.52h1.54v.75Z"/></g><g id="g3169"><path id="path3171" class="cls-2" d="M68.5,28.26V25h.9L70.21,27,71,25h.9v3.25H71V26.67l-.64,1.59H70l-.67-1.62v1.59H68.5Z"/></g><g id="g3173"><path id="path3175" class="cls-2" d="M72.58,28.26V25H74.9v.76H73.45v.52h1.16V27H73.45v.52H75v.75Z"/></g><g id="g3177"><path id="path3179" class="cls-2" d="M75.53,28.26V25h.87l1,1.71V25h.84v3.25h-.78l-1.16-1.83v1.83Z"/></g><g id="g3181"><path id="path3183" class="cls-2" d="M79.67,28.26V25.77h-.9V25h2.67v.76h-.9v2.49Z"/></g><g id="g3187"><g id="g3193"><path id="path3195" class="cls-2" d="M35.85,27.31a1.18,1.18,0,0,0,.33.25.77.77,0,0,0,.41.08c.08,0,.33,0,.33-.16a.25.25,0,0,0-.08-.33c-.08-.09-.25-.09-.41-.17a1.27,1.27,0,0,1-.82-.41.79.79,0,0,1-.25-.82,1,1,0,0,1,.9-.83,1.49,1.49,0,0,1,1.32.33l.16.17-.57.41-.08-.08a1.93,1.93,0,0,0-.42-.25h-.41c-.08.08-.16.25-.08.33a.63.63,0,0,0,.33.16,3.37,3.37,0,0,1,.91.33,1,1,0,0,1,.41.74c0,1-1.32,1.24-2.06.83a.86.86,0,0,1-.49-.41Z"/></g><g id="g3197"><path id="path3199" class="cls-2" d="M38.67,27.31a1.18,1.18,0,0,0,.33.25.75.75,0,0,0,.41.08c.08,0,.33,0,.33-.16a.25.25,0,0,0-.08-.33c-.08-.09-.25-.09-.41-.17a1.32,1.32,0,0,1-.83-.41.78.78,0,0,1-.24-.82,1,1,0,0,1,.9-.82,1.48,1.48,0,0,1,1.32.32l.16.17-.57.41-.09-.08a1.63,1.63,0,0,0-.41-.25h-.41c-.08.08-.16.25-.08.33a.66.66,0,0,0,.33.17,2.9,2.9,0,0,1,.9.32.87.87,0,0,1,.41.74c0,1-1.31,1.24-2,.83a.88.88,0,0,1-.5-.41Z"/></g><g id="g3201"><path id="path3203" class="cls-2" d="M63.63,27.11v-.66H65V28.1a3.16,3.16,0,0,1-1.07.16,1.49,1.49,0,0,1-1.4-.57,1.43,1.43,0,0,1-.33-1,2.49,2.49,0,0,1,.16-1.07,1.46,1.46,0,0,1,1.07-.74,1.33,1.33,0,0,1,1.32.41.44.44,0,0,1,.16.33l-.74.41q-.12-.24-.24-.24a.5.5,0,0,0-.66.08.91.91,0,0,0-.25.66c-.08.82.33,1.07.49,1.07a.73.73,0,0,0,.58,0v-.5Z"/></g></g></svg>