<?xml version="1.0" encoding="utf-8"?>
<!-- Generator: Adobe Illustrator 25.2.1, SVG Export Plug-In . SVG Version: 6.00 Build 0)  -->
<svg version="1.1" id="svg10" xmlns="http://www.w3.org/2000/svg" xmlns:xlink="http://www.w3.org/1999/xlink" x="0px" y="0px"
	 viewBox="0 0 100 40" style="enable-background:new 0 0 100 40;" xml:space="preserve">
<style type="text/css">
	.st0{fill:#072045;}
</style>
<g>
	<path class="st0" d="M64.1,20.2c0-5.3,4.3-9.7,9.7-9.7c5.3,0,9.7,4.4,9.7,9.7c0,5.4-4.4,9.7-9.7,9.7C68.4,29.9,64.1,25.6,64.1,20.2
		z M73.8,26.4c3.5,0,6.2-2.8,6.2-6.3c0-3.4-2.8-6.1-6.2-6.1c-3.5,0-6.2,2.8-6.2,6.3C67.6,23.6,70.4,26.4,73.8,26.4z"/>
	<path class="st0" d="M30.2,13.6c0,0.6,0,1.2,0,1.8c0,0.2,0,0.3-0.2,0.4s-0.3,0-0.4-0.1c-0.8-0.7-1.7-1.3-2.7-1.6
		c-4.4-1.5-7.9,1.7-8.4,4.9c-0.3,1.4-0.2,2.8,0.4,4.1c1,2.2,2.7,3.5,5.2,3.7c0.9,0.1,1.9,0,2.7-0.3c0.8-0.3,1.6-0.8,2.4-1.4
		c0.2-0.1,0.3-0.3,0.4-0.3c0.1-0.1,0.3-0.2,0.4-0.1c0.2,0.1,0.2,0.2,0.2,0.3c0,1,0,2,0,3c0,0.1,0,0.2,0,0.3c0.1,0.4-0.2,0.7-0.5,0.8
		c-1.9,0.9-3.8,1.4-5.8,1.3c-2.9-0.2-5.2-1.5-7.1-3.7c-1.2-1.4-1.9-3-2.1-4.7c-0.8-5.3,2.5-9.4,5.9-10.9c1.2-0.5,2.4-0.8,3.6-0.8
		c2-0.2,3.9,0.3,5.7,1.4c0.2,0.1,0.3,0.3,0.3,0.5C30.2,12.5,30.2,13,30.2,13.6z"/>
	<path class="st0" d="M44.9,14c-0.1,0-0.2,0-0.2,0c-1.1,0-2.1,0-3.2,0c-0.5,0-0.9-0.4-0.9-0.9c0-0.6,0-1.2,0-1.8
		c0-0.5,0.3-0.8,0.8-0.8c3.6,0,7.1,0,10.6,0c0.5,0,0.8,0.3,0.8,0.8c0,0.6,0,1.3,0,1.9c0,0.5-0.3,0.8-0.8,0.8c-1.1,0-2.1,0-3.2,0
		c-0.1,0-0.1,0-0.2,0c0,0.1,0,0.2,0,0.3c0,5,0,9.9,0,14.9c0,0.3-0.1,0.5-0.3,0.7c-0.2,0.2-0.3,0.2-0.6,0.2c-0.7,0-1.4,0-2,0
		c-0.4,0-0.8-0.3-0.8-0.8c0-0.1,0-0.2,0-0.2c0-4.9,0-9.9,0-14.8C44.9,14.1,44.9,14,44.9,14z"/>
	<path class="st0" d="M37.8,20.2c0,3,0,5.9,0,8.9c0,0.3-0.1,0.6-0.4,0.8c-0.2,0.1-0.3,0.1-0.4,0.1c-0.7,0-1.4,0-2,0
		c-0.5,0-0.8-0.3-0.8-0.8c0-5.9,0-11.9,0-17.8c0-0.5,0.3-0.8,0.8-0.8c0.7,0,1.4,0,2,0c0.6,0,0.8,0.3,0.8,0.8
		C37.8,14.3,37.8,17.3,37.8,20.2z"/>
	<path class="st0" d="M59.5,22.8c0,2.1,0,4.2,0,6.4c0,0.5-0.3,0.8-0.8,0.8c-0.8,0-1.4,0-2.2,0c-0.2,0-0.3-0.1-0.4-0.1
		c-0.2-0.1-0.3-0.3-0.3-0.5c0-4.4,0-8.7,0-13.1c0-0.3,0.3-0.7,0.7-0.7s0.9,0,1.4,0c0.3,0,0.6,0,0.8,0c0.1,0,0.3,0,0.3,0.1
		c0.3,0.1,0.4,0.3,0.4,0.6C59.5,18.4,59.5,20.6,59.5,22.8z"/>
	<path class="st0" d="M57.6,10.5c1,0,1.9,0.8,1.9,1.9s-0.8,1.9-1.9,1.9s-1.9-0.8-1.9-1.9S56.6,10.5,57.6,10.5z"/>
	<path class="st0" d="M73.8,25.1c-2.7,0-4.9-2.2-4.9-5c0-2.7,2.2-4.9,5-4.8c2.7,0,4.9,2.2,4.9,5C78.7,22.9,76.5,25.1,73.8,25.1z
		 M73.8,22.4c1.2,0,2.2-1,2.2-2.2S75,18,73.8,18c-1.2,0-2.2,1-2.2,2.2S72.6,22.4,73.8,22.4z"/>
</g>
</svg>
