<?xml version="1.0" encoding="utf-8"?>
<!-- Generator: Adobe Illustrator 25.2.1, SVG Export Plug-In . SVG Version: 6.00 Build 0)  -->
<svg version="1.1" id="Layer_1" xmlns="http://www.w3.org/2000/svg" xmlns:xlink="http://www.w3.org/1999/xlink" x="0px" y="0px"
	 viewBox="0 0 297.9 41.8" style="enable-background:new 0 0 297.9 41.8;" xml:space="preserve">
<style type="text/css">
	.st0{fill:#072045;}
	.st1{fill-rule:evenodd;clip-rule:evenodd;fill:#072045;}
</style>
<path class="st1" d="M0,41.3h31l1.7-11.9h-2.6c-3.9,7.2-4.9,9.3-9.8,9.3h-1.2c-2.7,0-4-0.7-4-3.5V23.9h4.4c2.5,0,3,1.2,3.5,4.9h2.5
	V15.9h-2.5c-0.4,3.7-1,4.9-3.5,4.9h-4.4V7.1h4.5c5,0,6.4,1.9,9.2,7.8H31L30.7,4.5H0v2.4c3.4,0.4,3.6,0.8,3.6,3.5v25
	c0,2.7-0.2,3.1-3.6,3.5V41.3L0,41.3z M48.3,26.5l8.8,14.8h11.1v-1.5l-11-17.5l5.6-5.3c1.4-1.4,2.7-1.7,4.4-1.9v-2.2H55V15
	c2.4,0.3,3.1,0.6,3.1,1.6c0,0.7-0.3,1.4-1.8,2.7L48.3,26.5L48.3,26.5z M37.2,37.2c0,1.6-0.8,1.7-2.8,1.9v2.2h16.4v-2.2
	c-1.9-0.2-2.8-0.3-2.8-1.9V0.3h-1.8L34.4,2.6v1.8l2.8,1.4C37.2,5.8,37.2,37.2,37.2,37.2z M83,12.3h-1.9l-11.7,3.1v1.6l2.8,1.8v18.3
	c0,1.6-0.8,1.7-2.8,1.9v2.2h16.4v-2.2c-1.9-0.2-2.8-0.3-2.8-1.9V12.3z M77.7,10.4c3.5,0,5.6-2.4,5.6-5.2c0-2.8-2.1-5.2-5.6-5.2
	c-3.5,0-5.6,2.4-5.6,5.2C72.1,8,74.2,10.4,77.7,10.4z M124.9,37.2c0,1.6-0.5,1.7-2.4,1.9v2.2h16v-2.2c-1.9-0.2-2.8-0.3-2.8-1.9V20.5
	c0-5.4-2.9-8.2-7.8-8.2c-4.6,0-7.9,2.7-9.7,5.5c-0.7-3.9-3.4-5.5-7.5-5.5c-4.8,0-7.7,2.5-9.5,5.4l0.2-5.4h-2.1l-11.7,3.1v1.6
	l2.8,1.8v18.3c0,1.6-0.8,1.7-2.8,1.9v2.2h16v-2.2c-1.9-0.2-2.4-0.3-2.4-1.9V19.3c1.2-0.4,2.2-0.7,3.6-0.7c2.2,0,2.8,1.2,2.8,3.1
	v15.5c0,1.6-0.5,1.7-2.4,1.9v2.2h15.6v-2.2c-1.9-0.2-2.4-0.3-2.4-1.9V19.3c1.2-0.4,2.2-0.8,3.6-0.8c2.2,0,2.8,1.2,2.8,3.1V37.2z
	 M154.5,12.3c-7.8,0-14.5,5.9-14.5,15.4c0,9.2,6.2,14.1,14.1,14.1c6.9,0,11-3.9,12.5-10l-1.1-0.7c-2,2.6-4.5,3.7-7.8,3.7
	c-4.6,0-7.9-3.7-7.9-9.4h16.6v-1.3C166.4,17.2,162.4,12.3,154.5,12.3z M153.8,14.6c2.5,0,3.4,3,3.4,8.2h-7.4
	C150,17.9,151.2,14.6,153.8,14.6z M181.6,5.6h-2.3c-2.9,3.7-7,6.8-11.5,8.3v1.9h2.8V33c0,6.3,3.5,8.8,8.6,8.8c4.4,0,7.5-1.9,9.6-5.4
	l-0.8-1.3c-1.2,0.8-2.4,1.3-3.7,1.3c-1.8,0-2.7-1-2.7-3.2V15.8h5.8v-3h-5.8L181.6,5.6L181.6,5.6z M203.6,22.7
	c2.3-1.4,5.4-1.5,8.7-1.5h1.4v-8c-0.6-0.5-1.5-0.9-2.8-0.9c-3.4,0-5.3,1.9-7.3,8.2l0.2-8.2h-2.1L190,15.5v1.6l2.8,1.8v18.3
	c0,1.6-0.8,1.7-2.8,1.9v2.2h17.7v-2.2c-2.9-0.4-4.1-0.6-4.1-2.9L203.6,22.7L203.6,22.7z M228.7,12.3h-1.9l-11.7,3.1v1.6l2.8,1.8
	v18.3c0,1.6-0.8,1.7-2.8,1.9v2.2h16.4v-2.2c-1.9-0.2-2.8-0.3-2.8-1.9V12.3L228.7,12.3z M223.4,10.4c3.5,0,5.6-2.4,5.6-5.2
	c0-2.8-2.1-5.2-5.6-5.2c-3.5,0-5.6,2.4-5.6,5.2C217.8,8,219.9,10.4,223.4,10.4z M242.7,24c0-5.2,1.7-9.2,4.6-9.2
	c2.3,0,3.1,2,3.1,5.2c0,0.9-0.1,1.9-0.2,3.1h5.4c1.2-0.5,2.5-1.8,2.5-4c0-4.9-4.6-6.9-10-6.9c-8.9,0-14.8,6.7-14.8,15.6
	c0,8.7,5.8,13.9,13.3,13.9c6.1,0,10.5-2.9,12.3-9.6l-1.3-0.8c-1.6,2.3-3.8,3.2-6.8,3.2C245.6,34.6,242.7,30.6,242.7,24L242.7,24z
	 M271.5,41.8c7.3,0,12.1-3.6,12.1-9.9c0-6-3.5-8.2-10.1-10.3c-3.2-1-4.7-1.8-4.7-3.9c0-1.9,1.5-3,3.6-3c3.6,0,6,3,6.5,6.3h2.5v-6.3
	c-2.3-1.5-5.6-2.4-9.2-2.4c-6.6,0-11.3,3.4-11.3,9.6c0,5.5,3.3,8.1,9.4,9.9c3.4,1,5.4,1.8,5.4,4.4c0,2.2-1.9,3.3-4.3,3.3
	c-4,0-6.9-3.2-7.8-7.4h-2.7l0.3,7.1C263.6,40.8,267,41.8,271.5,41.8L271.5,41.8z M286.3,36c0,3.5,2.6,5.8,5.8,5.8s5.8-2.4,5.8-5.8
	c0-3.5-2.6-5.9-5.8-5.9S286.3,32.5,286.3,36z"/>
</svg>
