<svg xmlns="http://www.w3.org/2000/svg" viewBox="0 0 94.61 26.94"><defs><style>.cls-1{fill:#072045;}</style></defs><g id="Layer_2" data-name="Layer 2"><g id="svg10"><path class="cls-1" d="M0,13.4v-5A3.23,3.23,0,0,1,1.74,5.47C4.53,3.84,7.35,2.24,10.14.6a3.61,3.61,0,0,1,3.95,0c2.75,1.63,5.54,3.2,8.31,4.79a3.72,3.72,0,0,1,1.89,4,1.62,1.62,0,0,1-.84,1.2c-3.58,2.05-7.15,4.12-10.75,6.15a1.42,1.42,0,0,1-1.11,0,12.72,12.72,0,0,1-2.05-1.19A1.38,1.38,0,0,1,9,14.7a13.81,13.81,0,0,1,0-2.49,1.33,1.33,0,0,1,.57-.89c1.27-.79,2.59-1.51,3.88-2.26.82-.48.81-1.05,0-1.56a2.21,2.21,0,0,0-2.7,0c-1.1.72-2.26,1.34-3.41,2a1.87,1.87,0,0,0-1.08,1.81c0,1.49,0,3,0,4.45a1.74,1.74,0,0,0,.94,1.64c1.27.73,2.53,1.45,3.79,2.19a2,2,0,0,0,2.23,0Q18,16.78,22.8,14.06c.9-.53,1.5-.19,1.5.85s0,2.35,0,3.53a3.32,3.32,0,0,1-1.78,3c-2.91,1.64-5.79,3.32-8.69,5a3.21,3.21,0,0,1-3.4,0q-4.36-2.51-8.72-5a3.28,3.28,0,0,1-1.71-3Z"/><path class="cls-1" d="M70.4,19.76H69.34l-.09-.51a19.24,19.24,0,0,1-2.1.63c-2.1.38-3.48-.61-3.68-2.73a14.55,14.55,0,0,1,.11-3.67c.3-1.86,1.37-2.66,3.27-2.67.78,0,1.57.1,2.43.16V7.12H70.4ZM69.31,12a7.12,7.12,0,0,0-3.21-.11,1.82,1.82,0,0,0-1.28,1.33,8.66,8.66,0,0,0-.11,4.08,1.69,1.69,0,0,0,2,1.55A12.33,12.33,0,0,0,69,18.37a.58.58,0,0,0,.35-.4C69.32,16,69.31,14.05,69.31,12Z"/><path class="cls-1" d="M80,15.83H74c.08,1.62.65,3,2.28,3.08,1.1,0,2.19,0,3.37,0l0,.86c-1.44,0-2.83.14-4.22.08a2.38,2.38,0,0,1-2.28-1.8,8,8,0,0,1,0-5.13,3.3,3.3,0,0,1,3.87-2.1,3,3,0,0,1,2.85,3C80,14.44,80,15.11,80,15.83Zm-1.12-.91c0-1.08,0-2.21-1-2.83a2.58,2.58,0,0,0-2.83.09c-1,.64-1,1.68-1,2.74Z"/><path class="cls-1" d="M41.87,17.89A2.44,2.44,0,0,1,40,19.76a6.14,6.14,0,0,1-3.07,0A2.52,2.52,0,0,1,35,17.89a9,9,0,0,1,0-5,2.62,2.62,0,0,1,2.21-1.92,7,7,0,0,1,1.52-.12,3.1,3.1,0,0,1,3.35,3.11A21.21,21.21,0,0,1,41.87,17.89Zm-1-4.2c-.13-.79-.41-1.55-1.29-1.72a7.31,7.31,0,0,0-2.09,0,1.52,1.52,0,0,0-1.32,1.25,8.79,8.79,0,0,0,0,4.44,1.43,1.43,0,0,0,1.19,1.17,9.7,9.7,0,0,0,2.22,0,1.27,1.27,0,0,0,1.09-1A22.18,22.18,0,0,0,40.87,13.69Z"/><path class="cls-1" d="M50.22,11h1.13v7.78c0,1.07,0,1.07-1.15.95l-.09-.48a16,16,0,0,1-2.1.62,5.47,5.47,0,0,1-1.8-.09,1.9,1.9,0,0,1-1.53-1.87c-.12-1-.17-1.94-.2-2.91,0-1.31,0-2.63,0-4h1.19c0,.27,0,.53,0,.78,0,1.89,0,3.77.13,5.65.05,1,.53,1.37,1.49,1.43a4.55,4.55,0,0,0,1.38-.11c1.49-.34,1.48-.36,1.48-1.86,0-1.91,0-3.82,0-5.72A1.62,1.62,0,0,1,50.22,11Z"/><path class="cls-1" d="M61,19.75h-1.1c0-.25,0-.48,0-.72,0-1.82,0-3.65-.13-5.47-.08-1.35-.84-1.89-2.18-1.7-.56.08-1.11.25-1.66.37s-.69.41-.68.95c0,2,0,3.9,0,5.84v.71H54.13V11h1.08l.1.52a1.6,1.6,0,0,0,.3-.08,5.36,5.36,0,0,1,3.47-.58,2.08,2.08,0,0,1,1.71,1.6A5,5,0,0,1,61,13.63C61,15.65,61,17.67,61,19.75Z"/><path class="cls-1" d="M88.13,19.61l.07-1c.79.08,1.52.2,2.26.21a8.28,8.28,0,0,0,2.05-.17c.67-.15.93-.66.9-1.39a1.12,1.12,0,0,0-1-1.22c-.91-.23-1.83-.37-2.73-.62-1.29-.35-1.66-.8-1.71-1.94a2.08,2.08,0,0,1,1.51-2.4,6.63,6.63,0,0,1,2.08-.3,19.69,19.69,0,0,1,2.3.23c.71.09.28.62.42,1-1-.08-1.9-.18-2.82-.21a4.94,4.94,0,0,0-1.38.14,1.21,1.21,0,0,0-.93,1.26,1.09,1.09,0,0,0,.94,1.17c.82.2,1.66.34,2.49.54,1.63.4,2.31,1.15,1.84,3.29a2.16,2.16,0,0,1-1.91,1.56A11.62,11.62,0,0,1,88.13,19.61Z"/><path class="cls-1" d="M33.57,7v.89H32.33c-1.11,0-1.45.28-1.56,1.37-.05.52-.05,1.05-.08,1.65h2.57v1H30.75v7.76H29.56V12L28.45,12V11l1-.08c.05-.77.06-1.51.17-2.25a1.82,1.82,0,0,1,2.1-1.78C32.36,6.91,33,7,33.57,7Z"/><path class="cls-1" d="M83.47,19.75H82.31V11h1.1l.07,1.07,3.2-1.4v1.22c-.88.33-1.74.67-2.61,1a.86.86,0,0,0-.62,1C83.48,15.8,83.47,17.75,83.47,19.75Z"/></g></g></svg>