<?xml version="1.0" encoding="utf-8"?>
<!-- Generator: Adobe Illustrator 25.2.1, SVG Export Plug-In . SVG Version: 6.00 Build 0)  -->
<svg version="1.1" id="Layer_1" xmlns="http://www.w3.org/2000/svg" xmlns:xlink="http://www.w3.org/1999/xlink" x="0px" y="0px"
	 viewBox="0 0 438 96.6" style="enable-background:new 0 0 438 96.6;" xml:space="preserve">
<style type="text/css">
	.st0{fill:#072045;}
	.st1{fill-rule:evenodd;clip-rule:evenodd;fill:#072045;}
</style>
<g>
	<path class="st1" d="M128.8,72.5h9.7V37.3h-9.7V72.5z M139.2,27.7c0,1.6-0.5,2.9-1.5,3.8c-1,1-2.3,1.4-4.1,1.4c-1.7,0-3-0.5-4-1.4
		c-1-1-1.5-2.2-1.5-3.8c0-1.5,0.5-2.8,1.5-3.8c1-1,2.3-1.5,4-1.5c1.7,0,3,0.5,4,1.5C138.7,24.8,139.2,26.1,139.2,27.7z M107.6,73.2
		c-6.5,0-11.5-2-14.8-6c-3.3-4-5-9.9-5-17.6c0-7.5,1.7-13.2,5.2-17.2c3.5-4,8.4-6,14.9-6c2.5,0,4.8,0.3,7,0.8
		c2.2,0.6,4.3,1.4,6.2,2.6l-3.9,7.7c-1.4-0.8-3-1.4-4.5-1.9c-1.6-0.4-3.1-0.7-4.6-0.7c-3.5,0-6.1,1.2-7.7,3.5c-1.6,2.4-2.4,6-2.4,11
		c0,5.1,0.8,8.9,2.4,11.4c1.6,2.4,4.2,3.7,7.7,3.7c0.8,0,1.6-0.1,2.4-0.2c0.8-0.1,1.5-0.3,2.3-0.5V50.1h9v19.5
		c-2.1,1.2-4.4,2.1-6.8,2.7C112.7,72.9,110.2,73.2,107.6,73.2z M169.1,37.3H159v-8.7h-7.1l-1.8,8.7l-6.7,1v6.9h6v15.9
		c0,3.9,1,6.9,3.1,9c2.1,2.1,5,3.1,8.8,3.1c1.7,0,3.3-0.2,4.9-0.6c1.6-0.4,3.1-1,4.5-1.7l-2.5-7.4c-0.9,0.4-1.8,0.7-2.7,0.9
		c-0.9,0.2-1.7,0.3-2.5,0.3c-1.4,0-2.5-0.3-3.1-0.9c-0.6-0.6-0.9-1.7-0.9-3.2V45.2h10.1V37.3z M193.9,73.2c-6.5,0-11.5-2-14.8-6
		c-3.3-4-5-9.9-5-17.6c0-7.5,1.7-13.2,5.2-17.2c3.5-4,8.4-6,14.9-6c2.5,0,4.8,0.3,7,0.8c2.2,0.6,4.3,1.4,6.2,2.6l-3.9,7.7
		c-1.4-0.8-3-1.4-4.5-1.9c-1.6-0.4-3.1-0.7-4.6-0.7c-3.5,0-6.1,1.2-7.7,3.5c-1.6,2.4-2.4,6-2.4,11c0,5.1,0.8,8.9,2.4,11.4
		c1.6,2.4,4.2,3.7,7.7,3.7c0.8,0,1.6-0.1,2.4-0.2c0.8-0.1,1.5-0.3,2.3-0.5V50.1h9v19.5c-2.1,1.2-4.4,2.1-6.8,2.7
		C199,72.9,196.6,73.2,193.9,73.2z M215.2,37.3v24.1c0,3.7,0.9,6.6,2.8,8.7c1.9,2.1,4.5,3.1,7.8,3.1c1.9,0,3.7-0.4,5.4-1.2
		c1.7-0.8,3.4-2.1,5.2-3.8v4.3h9.1V37.3H236v24.4c-1.3,1-2.5,1.7-3.7,2.2c-1.1,0.5-2.2,0.7-3.3,0.7c-1.4,0-2.5-0.4-3.2-1.2
		c-0.7-0.8-1-2-1-3.6V37.3H215.2z M261,62.2c0,1.2,0.4,2.1,1.1,2.8c0.7,0.7,1.8,1,3.2,1c1.3,0,2.4-0.2,3.5-0.7
		c1.1-0.4,2.2-1.1,3.5-2.1v-4.8h-6.9c-1.4,0-2.5,0.3-3.3,1C261.4,60.1,261,61,261,62.2z M281.7,49.6v22.9h-9v-3.8
		c-1.4,1.6-3,2.7-4.6,3.5c-1.6,0.7-3.5,1.1-5.5,1.1c-3.2,0-5.8-1-7.7-2.9c-2-1.9-3-4.4-3-7.5c0-3.2,1.1-5.8,3.4-7.7
		c2.2-1.9,5.3-2.8,9.3-2.8h7.8v-1.7c0-2-0.5-3.4-1.4-4.3c-0.9-0.9-2.4-1.3-4.4-1.3c-1.5,0-3.1,0.2-4.8,0.7c-1.7,0.4-3.7,1.1-5.9,2.1
		l-2.9-7.3c2.5-1.2,5.1-2.1,7.6-2.8c2.6-0.7,5-1,7.4-1c4.7,0,8.1,1.1,10.4,3.2C280.6,42,281.7,45.3,281.7,49.6z M299.1,72.5V48.7
		c1.7-1,3.4-1.8,5.3-2.2c1.8-0.5,3.9-0.7,6.3-0.7v-9.2c-2.3,0-4.4,0.4-6.3,1.3c-1.9,0.9-3.8,2.3-5.7,4.2v-4.8h-9.2v35.2H299.1z
		 M324,55c0,3.5,0.5,6.1,1.5,7.6c1,1.5,2.7,2.3,5.1,2.3c1,0,1.9-0.2,2.9-0.5c1-0.3,1.9-0.8,2.8-1.5V45.5c-0.9-0.4-1.8-0.7-2.6-0.8
		c-0.8-0.2-1.7-0.3-2.5-0.3c-2.7,0-4.5,0.8-5.6,2.5C324.5,48.5,324,51.2,324,55z M345.9,25.1v47.5h-9.1v-3.8
		c-1.3,1.5-2.7,2.7-4.2,3.4c-1.5,0.7-3.2,1.1-5,1.1c-4.3,0-7.6-1.6-9.9-4.7c-2.3-3.1-3.4-7.6-3.4-13.5c0-5.9,1.3-10.4,4-13.6
		c2.7-3.2,6.4-4.8,11.1-4.8c1.2,0,2.4,0.1,3.5,0.4s2.3,0.6,3.3,1.1v-13H345.9z M363.5,72.5h-9.7V37.3h9.7V72.5z M362.8,31.5
		c1-1,1.5-2.2,1.5-3.8c0-1.6-0.5-2.9-1.5-3.9c-1-1-2.3-1.5-4-1.5c-1.7,0-3,0.5-4,1.5c-1,1-1.5,2.3-1.5,3.8c0,1.6,0.5,2.9,1.5,3.8
		c1,1,2.3,1.4,4,1.4C360.4,32.9,361.8,32.4,362.8,31.5z M378.9,62.2c0,1.2,0.4,2.1,1.1,2.8c0.7,0.7,1.8,1,3.2,1
		c1.3,0,2.4-0.2,3.5-0.7c1.1-0.4,2.3-1.1,3.5-2.1v-4.8h-6.9c-1.4,0-2.5,0.3-3.3,1C379.2,60.1,378.9,61,378.9,62.2z M399.6,49.6v22.9
		h-9v-3.8c-1.4,1.6-3,2.7-4.6,3.5c-1.6,0.7-3.5,1.1-5.5,1.1c-3.2,0-5.8-1-7.7-2.9c-2-1.9-3-4.4-3-7.5c0-3.2,1.1-5.8,3.4-7.7
		c2.2-1.9,5.3-2.8,9.3-2.8h7.8v-1.7c0-2-0.5-3.4-1.4-4.3c-0.9-0.9-2.4-1.3-4.4-1.3c-1.5,0-3.1,0.2-4.8,0.7c-1.7,0.4-3.7,1.1-5.9,2.1
		l-2.9-7.3c2.5-1.2,5.1-2.1,7.6-2.8c2.6-0.7,5-1,7.4-1c4.7,0,8.1,1.1,10.4,3.2C398.4,42,399.6,45.3,399.6,49.6z M416.9,72.5V48.1
		c1.3-0.9,2.6-1.6,3.9-2.1c1.3-0.5,2.4-0.7,3.5-0.7c1.4,0,2.5,0.4,3.2,1.2c0.7,0.8,1,2,1,3.6v22.5h9.6V48.4c0-3.8-0.9-6.7-2.8-8.7
		c-1.8-2-4.4-3-7.8-3c-2,0-3.9,0.4-5.6,1.2c-1.7,0.8-3.6,2.1-5.4,3.8v-4.3h-9.2v35.2H416.9z"/>
	<path class="st1" d="M62.9,73.8c5.3-8.4,8.4-19.1,8.4-30.1v-5.3c0-2.1-0.9-3.9-2.6-5.1l-3.8-2.8c-1,3.5-2.8,7.2-5.3,10.2
		c3.8,5.9,5.8,12.6,5.8,19.7C65.4,64.7,64.5,69.4,62.9,73.8z M37.8,92.2c3.1,0,6.7-1.4,10.8-4.2c7.1-5.9,12.5-17.7,12.5-27.8
		c0-5.9-1.6-11.6-4.6-16.5c-4.7,4.1-10.6,6.5-16.9,6.9c2.2,4.6,3.4,10,3.4,15.5c0,9.4-3.7,18.4-10.2,25.2
		C34.6,91.9,36.2,92.2,37.8,92.2z M19.7,82.3c3.3,3,6.3,5.3,9.1,6.9c6.4-6,10-14.4,10-23.2c0-5.7-1.4-11.2-4-15.6
		c-6.1-0.6-11.8-3.2-16.2-7.4L7.3,62.2C9.9,70.2,14.2,77.3,19.7,82.3z M4.3,38.3v5.3c0,4.4,0.5,8.7,1.4,12.9l9.8-16.7
		c-2.2-2.8-3.8-6-4.8-9.4l-3.8,2.8C5.3,34.4,4.3,36.3,4.3,38.3z M41.5,24.6c-1.3,1.6-2.4,2.9-3.7,2.9c-1.3,0-2.4-1.3-3.7-2.9
		c-0.5-0.7-1.1-1.4-1.8-2.1c-4.2-4.5-9.7-5.7-13.6-4.1c-3.4,1.3-5,4.4-4.5,8.4c0.8,4.9,3.1,9.4,6.6,12.9c4.5,4.5,10.5,6.9,17.1,6.9
		c6.6,0,12.6-2.5,17.1-6.9c3.5-3.5,5.8-7.9,6.6-12.9c0.4-3.9-1.2-7-4.5-8.4c-3.9-1.6-9.4-0.4-13.6,4.1C42.6,23.2,42,23.9,41.5,24.6z
		 M52,4.4c-3.9,3.4-8.9,5.3-14.2,5.3S27.5,7.8,23.6,4.4C23.1,4,22.4,4,22,4.4c-3.5,3.1-6,7.1-7.3,11.5c6.1-4.1,13.7-2.7,19.4,2.6
		c0.8,0.8,1.4,1.4,1.9,1.8c0.9,0.9,1.2,1.2,1.9,1.2c0.7,0,1-0.3,1.9-1.2c0.4-0.4,1-1,1.9-1.8c5.7-5.3,13.3-6.7,19.4-2.6
		c-1.3-4.4-3.8-8.4-7.3-11.5C53.2,4,52.5,4,52,4.4z M65.8,25.7l5.4,4c2.7,2,4.4,5.2,4.4,8.6v5.3c0,16.4-6.4,32.4-16.8,41.8
		c-8.3,7.6-15,11.1-21,11.1c-6,0-12.7-3.5-21-11.1C6.4,76.1,0,60.1,0,43.7v-5.3c0-3.4,1.6-6.6,4.4-8.6l5.4-4
		c-0.5-5.1-0.4-15.6,9.4-24.4c2-1.7,5-1.7,7,0c3.2,2.8,7.3,4.3,11.5,4.3c4.2,0,8.3-1.5,11.5-4.3c2-1.8,5-1.8,7,0
		C65.9,9.8,66.3,20.3,65.8,25.7z M20.8,28.1c0-2.3,1.5-4.3,3.3-4.3c1.8,0,3.3,1.9,3.3,4.3c0,2.3-1.5,4.3-3.3,4.3
		C22.3,32.4,20.8,30.5,20.8,28.1z M37.8,30.9c1.6,0,2.7,1.1,2.8,2.8c0,0.3,0,0.5,0,0.8c0,2.7-0.5,4.9-1.8,7.3l0,0.1
		c-0.2,0.4-0.5,0.9-1,0.9c-0.5,0-0.8-0.5-1-0.9l0,0l0-0.1c-1.3-2.5-1.8-4.6-1.8-7.3c0-0.3,0-0.5,0-0.8C35.1,32,36.2,30.9,37.8,30.9z
		 M55.8,27.4c-0.4-1.4-1.7-2.5-3.2-2.7c-2.1-0.3-4.2,1-5.6,3.3c-0.4,0.7-0.2,1.3,0.1,1.6c0.2,0.2,0.5,0.3,0.9,0.4l0,0c0,0,0,0,0,0
		c0,0,0,0,0,0c0.4,0,0.8-0.3,1.1-0.5l0,0l0.1-0.1c1.5-1,2.7-1.1,4.1-0.2c0.7,0.5,1.5,0.5,2,0.1C55.8,29,56,28.2,55.8,27.4z"/>
</g>
</svg>
