<?xml version="1.0" encoding="utf-8"?>
<!-- Generator: Adobe Illustrator 25.2.1, SVG Export Plug-In . SVG Version: 6.00 Build 0)  -->
<svg version="1.1" id="Layer_1" xmlns="http://www.w3.org/2000/svg" xmlns:xlink="http://www.w3.org/1999/xlink" x="0px" y="0px"
	 viewBox="0 0 557.2 74.9" style="enable-background:new 0 0 557.2 74.9;" xml:space="preserve">
<style type="text/css">
	.st0{fill:#FFFFFF;}
</style>
<g>
	<path class="st0" d="M181,44.3c-14.4,0-28.6,0-42.9,0c2.5,11.6,14.9,13.6,29.5,5c2.9,3,5.8,6.1,8.7,9.1c-9,11.1-28.5,13.6-41.6,5.6
		c-12.5-7.7-17.6-25.2-11.3-39.5c6.1-14,22.1-20.9,38.1-16.3C176.5,12.4,183.9,25.7,181,44.3z M163.7,31.7
		c-0.2-6.6-4.3-10.7-10.7-11c-7.7-0.4-13.7,4.1-14.9,11.3C139.6,32.1,156.8,31.7,163.7,31.7z"/>
	<path class="st0" d="M223,30.1c-0.1-7.4-4.1-10.6-11.3-10.4c-5.8,0.2-11.5,1.9-16.8,5.5c-1.9-2.8-4.4-6.2-6.8-9.7
		c9.7-8.8,29.5-11.8,40.8-6.3c6.1,3,10.5,7.7,10.7,14.5c0.5,14.5,0.1,29,0.1,43.8c-4.9,0-9.7,0-14.8,0c-0.2-1.8-0.3-3.3-0.6-6.2
		c-5.9,6.6-12.7,8.4-20.5,7.3c-12.6-1.7-20.3-12.2-17.8-24.5c1.2-5.9,5-9.8,10.5-11.5c4.9-1.4,10-2,15.1-2.5
		C215.4,29.8,219.2,30.1,223,30.1z M222.5,41.5c-5.6-0.4-9.9-0.7-14.9,0.8c-4.3,1.3-4.5,3.8-4.5,5.5c0,2.1,1.9,5,3.8,6
		c4,2,8.4,1.5,12.2-1.3C222.6,50.1,223.6,46.6,222.5,41.5z"/>
	<path class="st0" d="M469.5,8.3c5.6-1.9,7.8,0.1,9.3,5.1c3.9,13.5,8.3,26.8,12.6,40.1c0.5,1.5,1.1,3,2.1,5.8
		c1.9-5.8,3.4-10.4,4.9-15c3.5-11,7-22,10.4-33c0.8-2.6,1.8-3.7,4.8-3.8c3.1,0,4,1.4,4.7,3.9c4.3,13.9,8.7,27.7,13.1,41.5
		c0.5,1.7,1.1,3.4,2.2,6.6c1.4-4.3,2.4-7.2,3.4-10.2c3.8-12.1,7.9-24.2,11.4-36.4c1.4-5,3.8-6.4,8.9-4.7
		c-4.4,13.2-8.9,26.3-13.3,39.3c-1.8,5.5-3.8,10.9-5.5,16.4c-0.8,2.7-2,4-5.2,4c-3.4,0-4.1-1.7-4.9-4.3
		c-4.7-14.9-9.5-29.8-14.7-46.2c-1.1,2.8-1.8,4.3-2.3,5.9c-4.4,13.5-8.8,27-13.1,40.5c-0.8,2.7-2,4.1-5.2,4
		c-2.9-0.1-3.9-1.3-4.8-3.8c-5.8-17.4-11.8-34.7-17.7-52C470.1,11,469.9,9.7,469.5,8.3z"/>
	<path class="st0" d="M262.6,67.6c-5.9,0-11.1,0-16.6,0c-0.2-0.6-0.6-1.2-0.6-1.8c0-13.1-0.2-26.1,0-39.2
		c0.1-8.9,4.2-15.6,12.9-18.7c9.1-3.2,17.2-1.4,24.7,5.3c-1.9,3.6-3.8,7.1-5.8,10.8c-4-1.7-9.2-6.5-14-2.1c-2,1.9-1.6,4.1-1.7,9.7
		c6.1,0,10.7,0,15.6,0c0,4.2,0,7.9,0,12.1c-4.8,0-9.4,0-14.6,0C262.6,52,262.6,59.6,262.6,67.6z"/>
	<path class="st0" d="M437.2,7c18.3,0.2,31.7,13.2,31.6,30.6c-0.1,17.1-14.4,31-31.8,30.7c-17.5-0.2-31.7-14.5-31.2-31.4
		C406.2,20,420,6.8,437.2,7z M412.5,37.3c-0.1,13.2,11.2,24.6,24.6,24.9c13,0.2,24.8-11.4,24.9-24.6c0.2-12.9-11.2-24.1-24.6-24.2
		C424.2,13.3,412.6,24.4,412.5,37.3z"/>
	<path class="st0" d="M386.4,47.9c4.6,6.6,9.4,12.4,14,19.2l-9.4-0.2c-0.4-0.9-13.7-18.8-13.7-18.8L359.1,48c0,5.9,0,13.1,0,19.5
		c-2.4,0-4.3,0-6.5,0c0-19.9,0-38.7,0-59.5c0,0,21.5-0.6,31.9,0.9c9.3,1.4,14.2,7.7,15.1,16.1c1.1,10.3-2.5,17.2-11.2,21.6
		C387.7,47,387.2,47.4,386.4,47.9z M359.4,41.7c7.3,0,14.5,0.5,21.5-0.1c7.2-0.7,11.6-6.2,11.7-13.2c0.1-7.6-3.6-12.7-11.6-13.5
		c-7-0.8-14.2-0.2-21.7-0.2C359.4,23.5,359.4,32.5,359.4,41.7z"/>
	<path class="st0" d="M57,6.8C71,13.3,77.8,28.7,75,44.6c-2.6,14.9-15.4,27.7-30.2,29.8c-4.2,0.6-8.6,0.7-12.8,0.2
		c-5.6-0.7-8-3.6-8.2-8.3c-0.1-4.6,2.7-7.9,8-9.3c5.9-1.5,12-2.7,17.7-4.8c20.1-7.4,24.7-29,9.6-44.1C58.5,7.6,57.7,7.2,57,6.8z"/>
	<path class="st0" d="M16.8,68.8C7.4,62.7,1.6,54.1,0.3,42.9C-2.5,18.4,15.5-0.7,40.2,0c7.4,0.2,11.1,2.9,11.6,8.3
		c0.5,5.2-3,8.8-9.8,10.4c-5.8,1.4-11.7,2.7-17.2,4.8C5.3,31,1.2,52.8,16.4,67C16.8,67.4,17.3,68.3,16.8,68.8z"/>
	<path class="st0" d="M90.6,8c2.1-0.2,3.6-0.3,5-0.3c3.9,0,7.9,0,12.5,0c0,8.7,0,16.9,0,25.1c0,4.5,0,8.9,0,13.4
		c0,7.1,1.6,8.6,8.7,8.8c1.1,0,2.3,0.1,3.8,0.2c0,4.4,0,8.6,0,13.3c-7.5,0.5-15,1.1-21.7-3.6c-4.7-3.3-7.5-7.9-8-13.6
		c-0.2-2.1-0.3-4.3-0.3-6.4C90.6,32.7,90.6,20.6,90.6,8z"/>
	<path class="st0" d="M341.6,15.7c-1.2,1.5-2.4,2.9-3.9,4.7c-6.7-4.9-13.7-7.8-21.9-6.7c-9.8,1.3-18.7,8.9-21,18
		c-2.4,9.6,1.4,19.7,9.9,25.7c8.1,5.8,19.4,6.3,27.6,0.8c1.2-0.8,2.2-2.8,2.3-4.3c0.3-4.9,0.1-9.9,0.1-15.1c2.3,0,4.1,0,6.7,0
		c0,6.8,0.1,13.5-0.1,20.2c0,1.1-1.4,2.6-2.5,3.3c-21.2,13.4-48.7,3.2-51.5-22.1c-2.1-18.9,16.2-35.6,36.3-32.8
		C330.5,8.4,336.3,11,341.6,15.7z"/>
</g>
</svg>
