<?xml version="1.0" encoding="utf-8"?>
<!-- Generator: Adobe Illustrator 25.2.1, SVG Export Plug-In . SVG Version: 6.00 Build 0)  -->
<svg version="1.1" id="Layer_1" xmlns="http://www.w3.org/2000/svg" xmlns:xlink="http://www.w3.org/1999/xlink" x="0px" y="0px"
	 viewBox="0 0 210.4 36.7" style="enable-background:new 0 0 210.4 36.7;" xml:space="preserve">
<style type="text/css">
	.st0{opacity:0.7;fill:#072045;enable-background:new    ;}
	.st1{fill:#FFF;}
	.st2{opacity:0.83;fill:#072045;enable-background:new    ;}
	.st3{fill-rule:evenodd;clip-rule:evenodd;fill:#072045;}
</style>
<path class="st1" d="M183.4,33.2c0,2-1.6,3.5-3.5,3.5c-2,0-3.5-1.6-3.5-3.5V16.6c0-2,1.6-3.5,3.5-3.5c2,0,3.5,1.6,3.5,3.5V33.2z
	 M184.4,4.5c0,2.5-2.1,4.5-4.5,4.5c-2.5,0-4.5-2.1-4.5-4.5s2-4.5,4.5-4.5S184.4,2.1,184.4,4.5z M194.4,16.4V17
	c0.9-1.4,2.1-2.4,3.6-3.2c1.5-0.7,3.4-1.1,5.4-1.1c1.5,0,2.7,0.3,3.6,0.8c0.9,0.5,1.6,1.2,2.1,2.1c0.5,0.9,0.8,1.8,1,2.9
	s0.2,2,0.2,3v15.2h-7V23.2c0-1.5-0.3-2.6-0.9-3.3c-0.6-0.7-1.3-1-2.3-1c-0.5,0-1,0.1-1.5,0.3s-1,0.5-1.5,0.9
	c-0.4,0.4-0.9,0.8-1.2,1.3c-0.4,0.5-0.7,1-0.9,1.6v13.7h-7V16.3v-0.1c0-1.7,1.4-3.1,3.1-3.1h0.2c1.7,0.1,3,1.4,3.1,3
	C194.4,16.1,194.4,16.4,194.4,16.4z M66.3,20.1c-0.5-1.5-1.2-2.8-2.1-3.9s-1.9-1.9-3.1-2.6c-1.2-0.6-2.6-1-4-1
	c-1.8,0-3.3,0.4-4.5,1.1c-1.3,0.7-2.3,1.8-3.1,3.1V3.5l0,0v0c0-1.9-1.6-3.5-3.5-3.5c-1.9,0-3.5,1.6-3.5,3.5v0l0,0v33.1h0.2l0,0h6.8
	v-3c0.6,0.8,1.4,1.4,2.3,1.9c1.3,0.7,2.9,1.1,4.6,1.1c1.5,0,2.9-0.3,4.3-0.9c1.3-0.6,2.5-1.4,3.4-2.5c1-1.1,1.7-2.3,2.3-3.8
	c0.5-1.5,0.8-3,0.8-4.7C67,23.1,66.8,21.6,66.3,20.1L66.3,20.1z M59.4,27.2c-0.3,0.7-0.6,1.3-1.1,1.9c-0.5,0.5-1.1,1-1.8,1.2
	c-0.7,0.3-1.5,0.5-2.3,0.5c-1,0-1.9-0.3-2.8-0.9c-0.9-0.6-1.6-1.4-2.1-2.3v-4.9c0.5-1.2,1.2-2.1,2.1-2.9c0.9-0.8,1.9-1.2,3.1-1.2
	c0.8,0,1.5,0.1,2.1,0.5s1.2,0.8,1.7,1.3c0.5,0.6,0.8,1.2,1.1,2c0.2,0.7,0.4,1.5,0.4,2.3C59.8,25.7,59.7,26.4,59.4,27.2z M103.7,16.4
	V17c0.9-1.4,2.1-2.4,3.6-3.2c1.5-0.7,3.4-1.1,5.4-1.1c1.5,0,2.7,0.3,3.6,0.8c0.9,0.5,1.6,1.2,2.1,2.1c0.5,0.9,0.8,1.8,1,2.9
	s0.2,2,0.2,3v15.2h-7V23.3c0-1.5-0.3-2.6-0.9-3.3c-0.6-0.7-1.3-1-2.3-1c-0.5,0-1,0.1-1.5,0.3s-1,0.5-1.5,0.9
	c-0.4,0.4-0.9,0.8-1.2,1.3c-0.4,0.5-0.7,1-0.9,1.6v13.7h-7V16.3v-0.1c0-1.7,1.4-3.1,3.1-3.1h0.2c1.7,0.1,3,1.4,3.1,3L103.7,16.4
	L103.7,16.4z M36,16.3c-1.1-1.1-2.3-2-3.9-2.6c-1.5-0.7-3.3-1-5.2-1s-3.7,0.3-5.3,1c-1.5,0.7-2.9,1.5-3.9,2.6
	c-1.1,1.1-1.9,2.4-2.4,3.9c-0.6,1.5-0.8,3.1-0.8,4.7c0,1.3,0.2,2.6,0.6,3.9c-0.4,0.5-0.8,0.9-1.4,1.3c-0.7,0.4-1.5,0.7-2.4,0.7
	c-0.7,0-1.4-0.1-2-0.4s-1.2-0.7-1.7-1.2C7.4,28.9,7,28.3,7,26.5v-23C7,1.6,5.5,0,3.5,0C1.6,0,0,1.6,0,3.5v24.9
	c0,2.1,1.2,3.7,2.2,4.7c1.1,1.1,2.4,2,3.9,2.6c0.5,0.2,1,0.4,1.6,0.5c1.1,0.3,2.3,0.4,3.6,0.4c2.7,0,4.9-0.6,6.8-1.7
	c0.4-0.2,0.7-0.4,1-0.7c0.8,0.6,1.6,1,2.6,1.4c1.5,0.6,3.3,1,5.2,1c2.7,0,5-0.6,6.9-1.7c1.9-1.2,3.3-2.6,4.2-4.5l-6-1.7
	c-0.2,0.5-0.5,1-0.9,1.3c-0.3,0.3-0.6,0.5-1,0.7c-1,0.5-1.9,0.7-3,0.7c-1.3,0-2.4-0.4-3.4-1.2c-1-0.8-1.6-2-1.7-3.5H39
	c0.1-0.3,0.1-0.7,0.1-1c0-0.4,0-0.8,0-1.2c0-1.6-0.3-3.1-0.8-4.5C37.9,18.7,37.1,17.4,36,16.3L36,16.3z M21.8,22.5
	c0.1-1.4,0.7-2.6,1.6-3.4c0.9-0.9,2-1.3,3.4-1.3c1.3,0,2.5,0.4,3.4,1.3s1.4,2,1.6,3.5C31.8,22.5,21.8,22.5,21.8,22.5z M171.8,20.2
	c-0.6-1.5-1.4-2.7-2.4-3.8c-1.1-1.1-2.3-2-3.9-2.6c-1.5-0.7-3.3-1-5.2-1c-2,0-3.7,0.3-5.3,1c-1.5,0.7-2.9,1.5-3.9,2.6
	c-1.1,1.1-1.9,2.4-2.4,3.8c-0.5,1.5-0.8,3-0.8,4.5s0.3,3.1,0.8,4.5c0.5,1.5,1.3,2.7,2.4,3.8s2.3,2,3.9,2.6c1.5,0.7,3.3,1,5.3,1
	c2,0,3.7-0.3,5.3-1s2.9-1.5,3.9-2.6c1.1-1.1,1.8-2.4,2.4-3.8c0.5-1.5,0.8-3,0.8-4.5S172.3,21.6,171.8,20.2L171.8,20.2z M164.9,27.2
	c-0.3,0.7-0.6,1.4-1.1,1.9c-0.4,0.5-1,1-1.6,1.2s-1.3,0.4-2,0.4c-1.5,0-2.7-0.6-3.7-1.7c-1-1.1-1.5-2.6-1.5-4.4
	c0-0.9,0.1-1.7,0.4-2.4c0.3-0.7,0.6-1.4,1.1-1.9c0.4-0.5,1-1,1.6-1.2c0.6-0.3,1.3-0.4,2.1-0.4c1.5,0,2.7,0.6,3.7,1.7
	c1,1.1,1.5,2.6,1.5,4.4C165.3,25.6,165.2,26.4,164.9,27.2z M90.7,16.3c-1.1-1.1-2.3-2-3.9-2.6c-1.5-0.7-3.3-1-5.2-1s-3.7,0.3-5.3,1
	c-1.5,0.7-2.9,1.5-3.9,2.6c-1.1,1.1-1.9,2.4-2.4,3.8c-0.5,1.5-0.8,3-0.8,4.5s0.3,3.1,0.8,4.5c0.5,1.5,1.3,2.7,2.4,3.8
	c1.1,1.1,2.3,2,3.9,2.6c1.5,0.7,3.3,1,5.3,1s3.7-0.3,5.3-1c1.5-0.7,2.9-1.5,3.9-2.6c1.1-1.1,1.8-2.4,2.4-3.8c0.5-1.5,0.8-3,0.8-4.5
	s-0.3-3.1-0.8-4.5C92.6,18.7,91.8,17.4,90.7,16.3z M86.3,27.2c-0.3,0.7-0.6,1.4-1.1,1.9c-0.4,0.5-1,1-1.6,1.2s-1.3,0.4-2,0.4
	c-1.5,0-2.7-0.6-3.7-1.7c-1-1.1-1.5-2.6-1.5-4.4c0-0.9,0.1-1.7,0.4-2.4c0.3-0.7,0.6-1.4,1.1-1.9c0.4-0.5,1-1,1.6-1.2
	s1.3-0.4,2.1-0.4c1.5,0,2.7,0.6,3.7,1.7c1,1.1,1.5,2.6,1.5,4.4C86.7,25.6,86.6,26.4,86.3,27.2L86.3,27.2z M137.7,30.1
	c-0.7,0.4-1.5,0.6-2.4,0.6c-0.7,0-1.4-0.1-2-0.4s-1.2-0.7-1.7-1.2c-0.5-0.5-0.8-1.2-1.1-1.9s-0.4-1.6-0.4-2.5c0-1.8,0.5-3.3,1.5-4.4
	c1-1.1,2.2-1.6,3.7-1.6c1.8,0,3.1,0.7,4,2.2l6.9-2.1c-0.9-1.8-2.3-3.3-4.1-4.4c-1.8-1.1-4.1-1.7-6.7-1.7c-2,0-3.7,0.3-5.3,1
	c-1.5,0.7-2.9,1.5-3.9,2.6c-1.1,1.1-1.9,2.4-2.4,3.8c-0.6,1.5-0.8,3-0.8,4.5s0.3,3.1,0.8,4.5c0.6,1.5,1.4,2.7,2.4,3.8
	c1.1,1.1,2.4,2,3.9,2.6c1.5,0.7,3.3,1,5.2,1c2.7,0,4.9-0.6,6.8-1.7c1.9-1.2,3.2-2.6,4.1-4.4l-6.9-2.1
	C139,29.2,138.5,29.7,137.7,30.1L137.7,30.1z"/>
</svg>
