<svg width="184" height="31" viewBox="0 0 184 31" fill="none" xmlns="http://www.w3.org/2000/svg">
<path d="M24.734 0H15.0082C12.3265 0 10.0689 1.82275 9.39353 4.29462C9.26458 4.76889 9.18808 5.26501 9.18371 5.7808H12.1714C12.1801 5.23441 12.3462 4.72517 12.6216 4.29462C13.1286 3.51 14.0051 2.98547 15.006 2.98547H24.7318C26.2988 2.98547 27.573 4.25965 27.573 5.8267V15.6989C27.573 17.2659 26.2988 18.5401 24.7318 18.5401H21.3813V12.1648V9.17934H18.3958V12.1648V18.5401V21.5256V24.8782C18.3958 26.4452 17.1217 27.7194 15.5546 27.7194H5.82888C4.26184 27.7194 2.98766 26.4452 2.98766 24.8782V15.006C2.98766 13.439 4.26184 12.1648 5.82888 12.1648H9.17934V9.17934H5.8267C2.61393 9.17934 0 11.7933 0 15.006V24.8782C0 28.091 2.61393 30.7049 5.8267 30.7049H15.5524C18.7652 30.7049 21.3791 28.091 21.3791 24.8782V21.5256H24.7318C27.9445 21.5256 30.5585 18.9116 30.5585 15.6989V5.8267C30.5606 2.61393 27.9467 0 24.734 0Z" fill="#072045"/>
<path d="M18.3962 12.1648V9.17929H12.1673V5.82665C12.1673 5.81135 12.1717 5.79605 12.1717 5.77856H9.18187C9.18187 5.79386 9.17969 5.80916 9.17969 5.82665V9.17929V12.1648V15.6988C9.17969 18.9116 11.7936 21.5255 15.0064 21.5255H18.394V18.54H15.0064C13.4393 18.54 12.1652 17.2659 12.1652 15.6988V12.1648H18.3962Z" fill="#FBB72A"/>
<path d="M53.6008 11.8348H46.325V20.2754C46.325 22.8828 47.7107 24.0127 49.5881 24.0127C50.8644 24.0127 52.1408 23.5209 53.1243 22.8456L54.5274 25.088C53.1964 26.054 51.4655 26.8015 49.3302 26.8015C45.5754 26.8015 43.333 24.7405 43.333 20.33V3.68481H46.3228V9.11811H53.5986V11.8348H53.6008Z" fill="#072045"/>
<path d="M74.785 26.4387H71.7952V24.1242C70.427 25.7459 68.4032 26.8037 65.6865 26.8037C60.8193 26.8037 57.0273 23.0118 57.0273 17.7795C57.0273 12.5473 60.8193 8.75537 65.6865 8.75537C68.4032 8.75537 70.427 9.81318 71.7952 11.4545V9.11817H74.785V26.4387ZM60.0718 17.7795C60.0718 21.2262 62.4781 24.0149 66.034 24.0149C69.5353 24.0149 71.9787 21.3354 71.9787 17.7795C71.9787 14.2433 69.5353 11.5616 66.034 11.5616C62.4235 11.5616 60.0718 14.3329 60.0718 17.7795Z" fill="#072045"/>
<path d="M84.0651 26.4387H81.0928V0.183594H84.0651V26.4387Z" fill="#072045"/>
<path d="M105.816 17.7249C105.816 18.1074 105.779 18.5095 105.761 18.8373H92.141C92.5606 22.4282 95.0587 24.1985 98.0311 24.1985C100.055 24.1985 101.895 23.4139 103.373 22.1375L104.959 24.1789C102.809 26.1852 100.4 26.8037 97.8496 26.8037C92.7092 26.8037 89.0615 23.1757 89.0615 17.7795C89.0615 12.4555 92.6895 8.75537 97.6683 8.75537C102.387 8.75319 105.779 12.4184 105.816 17.7249ZM92.1781 16.4289H102.772C102.407 13.3647 100.42 11.3977 97.6114 11.3977C94.5473 11.3977 92.6327 13.4762 92.1781 16.4289Z" fill="#072045"/>
<path d="M126.654 15.6814V26.4387H123.664V16.6474C123.664 13.4565 121.913 11.5791 118.906 11.5791C116.117 11.5791 113.783 13.4936 113.783 16.7195V26.4365H110.811V9.11816H113.763V11.378C115.186 9.42633 117.428 8.75317 119.433 8.75317C123.701 8.75317 126.654 11.5245 126.654 15.6814Z" fill="#072045"/>
<path d="M142.542 11.8348H135.266V20.2754C135.266 22.8828 136.652 24.0127 138.529 24.0127C139.806 24.0127 141.082 23.5209 142.066 22.8456L143.469 25.088C142.138 26.054 140.407 26.8015 138.272 26.8015C134.517 26.8015 132.274 24.7405 132.274 20.33V3.68481H135.264V9.11811H142.54V11.8348H142.542Z" fill="#072045"/>
<path d="M161.301 3.02934C161.301 4.21392 160.353 5.10781 159.168 5.10781C157.984 5.10781 157.072 4.21392 157.072 3.02934C157.072 1.8251 157.984 0.89624 159.168 0.89624C160.353 0.89624 161.301 1.8251 161.301 3.02934Z" fill="#072045"/>
<path d="M160.682 9.11816H157.71V26.4387H160.682V9.11816Z" fill="#072045"/>
<path d="M184 17.7795C184 22.92 180.079 26.8037 174.829 26.8037C169.577 26.8037 165.676 22.92 165.676 17.7795C165.676 12.6391 169.577 8.75537 174.829 8.75537C180.079 8.75319 184 12.6369 184 17.7795ZM168.72 17.7795C168.72 21.4076 171.345 24.0149 174.829 24.0149C178.293 24.0149 180.938 21.4076 180.938 17.7795C180.938 14.1515 178.293 11.5616 174.829 11.5616C171.347 11.5616 168.72 14.1493 168.72 17.7795Z" fill="#072045"/>
<path d="M151.885 24.3338C151.885 25.5184 150.937 26.4123 149.752 26.4123C148.568 26.4123 147.656 25.5184 147.656 24.3338C147.656 23.1295 148.568 22.2007 149.752 22.2007C150.937 22.2007 151.885 23.1295 151.885 24.3338Z" fill="#072045"/>
</svg>
