<svg width="388" height="536" viewBox="0 0 388 536" fill="none" xmlns="http://www.w3.org/2000/svg">
<g opacity="0.2">
<path d="M566.841 -83H344.298C282.936 -83 231.276 -41.2919 215.823 15.269C212.873 26.1211 211.123 37.4733 211.023 49.2756H279.386C279.586 36.7732 283.387 25.1209 289.688 15.269C301.29 -2.68444 321.344 -14.6868 344.248 -14.6868H566.792C602.648 -14.6868 631.804 14.4689 631.804 50.3258V276.22C631.804 312.077 602.648 341.232 566.792 341.232H490.127V195.354V127.041H421.813V195.354V341.232V409.545V486.26C421.813 522.117 392.658 551.273 356.801 551.273H134.258C98.4007 551.273 69.2451 522.117 69.2451 486.26V260.367C69.2451 224.51 98.4007 195.354 134.258 195.354H210.923V127.041H134.208C60.6934 127.041 0.881836 186.852 0.881836 260.367V486.26C0.881836 559.775 60.6934 619.586 134.208 619.586H356.751C430.265 619.586 490.077 559.775 490.077 486.26V409.545H566.792C640.306 409.545 700.117 349.734 700.117 276.22V50.3258C700.167 -23.1884 640.356 -83 566.841 -83Z" fill="white"/>
<path d="M421.824 195.36V127.047H279.296V50.3321C279.296 49.9821 279.396 49.632 279.396 49.2319H210.983C210.983 49.582 210.933 49.9321 210.933 50.3321V127.047V195.36V276.226C210.933 349.74 270.745 409.552 344.259 409.552H421.774V341.239H344.259C308.402 341.239 279.246 312.083 279.246 276.226V195.36H421.824Z" fill="white"/>
</g>
</svg>
