<?xml version="1.0" encoding="utf-8"?>
<!-- Generator: Adobe Illustrator 25.2.1, SVG Export Plug-In . SVG Version: 6.00 Build 0)  -->
<svg version="1.1" id="svg6365" xmlns:svg="http://www.w3.org/2000/svg"
	 xmlns="http://www.w3.org/2000/svg" xmlns:xlink="http://www.w3.org/1999/xlink" x="0px" y="0px" viewBox="0 0 1012.9 185.4"
	 style="enable-background:new 0 0 1012.9 185.4;" xml:space="preserve">
<style type="text/css">
	.st0{fill:#072045;}
	.st1{fill:#FFFFFF;}
</style>
<g>
	<path id="path6289" class="st0" d="M419.5,49.3c-7.7-4.2-19.1-6.3-34.9-6.3c-21.6,0-41.7,4.5-49.3,7.3c-1.7,0.5-3.5,2-3.6,4.6
		l0,0.6l2.1,10.8l0.1,0.2c0.7,2.2,2.5,3.2,4.2,3.2h0c0.5,0,1-0.1,1.3-0.2l3.6-0.8c9.4-2.4,23.7-5.9,39.6-5.9
		c9.6,0,16.1,0.8,20.5,2.7c7.1,2.7,7.1,7.2,7.2,14.8v11.3c-0.8,0-2.2,0-4.3,0c-7.8,0-23.1,0.4-38.2,2.8c-23,3.5-42,9-41.9,40.7
		c0,40.2,37.3,40.3,55.2,40.3h0c12.2,0,23.4-1.8,30.7-3.3c16.7-3.9,21-9.2,20.8-25.8V79.1C432.7,68.9,432.7,56.2,419.5,49.3
		 M410.4,152.5c-8.9,2.9-18.6,4.4-29,4.4v0.9l0-0.9c-16.5-0.1-32.6-2-32.6-23c0.1-16.7,9-18.7,20.3-21.2l0.8-0.2
		c10-2.1,35.3-2.6,40.5-2.6L410.4,152.5L410.4,152.5z M619,79.1v66.8c0.2,16.6-4,21.9-20.8,25.8c-7.3,1.5-18.5,3.3-30.7,3.3h0
		c-17.9,0-55.2-0.1-55.2-40.3c-0.1-31.7,18.9-37.2,41.9-40.7c15.1-2.4,30.4-2.8,38.2-2.8c2.1,0,3.5,0,4.3,0V80
		c-0.1-7.5-0.1-12.1-7.2-14.8c-4.3-1.8-10.8-2.7-20.5-2.7c-15.9,0-30.1,3.6-39.6,5.9l-3.6,0.8c-0.4,0.1-0.8,0.2-1.3,0.2h0
		c-1.7,0-3.5-1-4.2-3.2l-0.1-0.2l-2.1-10.8l0-0.6c0-2.5,1.9-4,3.6-4.6c7.6-2.8,27.7-7.3,49.3-7.3c15.8,0,27.2,2.1,34.9,6.3
		C619,56.2,619,68.9,619,79.1 M596.7,109.8c-5.2,0.1-30.4,0.5-40.5,2.6l-0.8,0.2c-11.3,2.5-20.2,4.5-20.3,21.2
		c0,21,16.1,22.9,32.6,23l0,0.9v-0.9c10.3,0,20.1-1.5,29-4.4L596.7,109.8L596.7,109.8z M956.5,43c-51.9,0.1-56.3,34.2-56.4,66.1
		c0,31.9,4.5,65.8,56.4,65.9h0c51.9-0.1,56.3-34,56.4-65.9C1012.8,75.7,1008.4,43.1,956.5,43 M956.5,156.4
		c-31.5-0.1-33.1-16.3-33.3-47.2c0.2-31.1,1.8-47.4,33.3-47.5c31.5,0.1,33.1,16.4,33.3,47.5C989.6,140.1,988,156.3,956.5,156.4
		 M863.3,170.4l-1.4,0.3c-7.3,1.8-17.2,4.4-34.6,4.4h0h0c-48-0.1-57.5-24.3-57.5-66.1c0.1-48,15.3-65.9,56.1-65.9
		c14.4,0,24.3,1.9,31.5,3.6l0-38.7c-0.1-1.7,0.7-3.9,4.7-4.7L874.8,0h0.7c2.9,0.1,4,2.7,4,4.9v145.2
		C879.7,159.3,878.6,167.2,863.3,170.4 M857.3,65.2c-4.3-1.1-16.2-3.8-29.5-3.8c-24.6,0.2-34.9,6.9-35.2,47.7
		c0.3,44.8,13.6,47.2,35.4,47.5l0,0.9v-0.9c13.5,0,25.2-2.8,29.3-4L857.3,65.2L857.3,65.2z M742.7,172h-11.4c-3.1,0-5.4-2.3-5.4-5.4
		V80.5c-0.2-14.6-4.6-18.6-20.3-18.8c-17.8,0-35.7,4.5-41.7,6.1v98.9c0,3.1-2.2,5.4-5.1,5.4h-11.6c-3.1,0-5.4-2.3-5.4-5.4V70
		c-0.2-8.9,0.7-15.1,13.4-19.2c12.2-4.2,35.5-7.8,50.9-7.8c29.3,0,41.9,10.6,41.9,35.4v88.3C748,169.7,745.7,172,742.7,172
		 M484.2,174.4L484.2,174.4c6.6-0.1,11.4-1.4,13.3-3.6c0.7-0.8,1-1.6,0.9-2.5c0-0.7,0-0.7-1.8-9.1l0-0.2c-0.4-2.2-2-3.2-3.3-3.2
		c-0.1,0-0.2,0-0.2,0c0,0-1.6-0.1-3.3-0.1h0c-4.7-0.1-8.5-0.8-8.6-7.7V4.9c0-2.4-1.4-4.8-4.2-4.9l-0.8,0l-12.8,3.3
		c-2.2,0.2-4.4,1.8-4.3,4.6v140.6C459,165.1,468,174.3,484.2,174.4L484.2,174.4L484.2,174.4z M303.6,172h-91.6
		c-3.1,0-5.4-2.3-5.4-5.4v-11.2c-0.1-2.7,0.8-4,2.5-6.1l72.9-84.7h-71.4c-3.1,0-5.4-2.3-5.4-5.4v-7.9c0-3.1,2.3-5.4,5.4-5.4h92.5
		c3.1,0,5.4,2.3,5.4,5.4v11.4c0,2.1-0.7,3.8-2.3,5.6l-73.1,84.9h70.5c3.1,0,5.4,2.3,5.4,5.4v7.9C309,169.7,306.7,172,303.6,172"/>
	<path id="path6315" class="st0" d="M23.2,31.9c-15.8,0-24,43.2-23.1,83.8c0,0,0,0-0.1,0c0.8,35.6,8.7,69.7,24.3,69.7
		c59.9,0,128.2-56.5,128.2-76.8c0-5.1-5.2-14.8-12.1-22.5c0,0,0,0,0,0c-0.5-0.5-1-1.1-1.5-1.6C117.6,60.7,73.3,31.9,23.2,31.9z"/>
</g>
</svg>
